<svg xmlns="http://www.w3.org/2000/svg" width="278" height="341" viewBox="0 0 278 341" preserveAspectRatio="xMidYMid meet">
  <g transform="translate(0,341) scale(0.1,-0.1)" fill="#000000" stroke="none">
    <path d="M1113 3100 c-285 -75 -523 -269 -654 -534 -27 -55 -58 -132 -69 -171
      -19 -67 -48 -281 -39 -289 2 -3 199 -2 437 1 l432 6 0 421 c0 447 -6 586 -24
      585 -6 0 -43 -9 -83 -19z"/>
    <path d="M1518 2618 c2 -277 5 -503 6 -504 0 0 196 1 434 4 l432 5 0 56 c0 75
      -31 220 -65 306 -122 307 -378 534 -695 615 -132 34 -118 96 -112 -482z"/>
    <path d="M1090 1809 c-344 -3 -650 -7 -680 -8 l-56 -1 3 -187 c9 -544 9 -552
      37 -658 98 -365 401 -654 766 -730 360 -75 729 40 965 299 109 119 172 221
      219 354 49 137 56 214 56 593 l0 349 -342 -2 c-189 -1 -624 -5 -968 -9z"/>
  </g>
</svg>
